<?xml version="1.0" encoding="UTF-8"?>
<svg version="1.1" xmlns="http://www.w3.org/2000/svg" width="512" height="512">
<path d="M0 0 C6.75370717 0.67537072 12.97420344 1.49307277 19.51953125 3.00390625 C20.40326416 3.20262329 21.28699707 3.40134033 22.19750977 3.6060791 C24.08827778 4.03186463 25.97845404 4.46028532 27.86807251 4.8911438 C31.89388411 5.8090654 35.92252401 6.71426124 39.95109558 7.61997986 C42.00739697 8.08230412 44.06355928 8.54524737 46.11958313 9.00880432 C55.338273 11.08488877 64.5726834 13.08299933 73.8125 15.0625 C87.17862478 17.93086405 100.51683268 20.91096788 113.84823608 23.93624878 C129.76103438 27.54254038 145.71341199 30.95116399 161.68505859 34.28662109 C177.52613634 37.61766917 193.22134807 41.31831455 209 45 C209 179.64 209 314.28 209 453 C202.30260186 452.33026019 196.14329299 451.53262338 189.65625 450.03125 C188.78627884 449.83526718 187.91630768 449.63928436 187.01997375 449.43736267 C185.15212173 449.01608013 183.28484991 448.59221815 181.41812134 448.16598511 C176.37925131 447.01599441 171.33579042 445.88641812 166.29296875 444.75390625 C164.74678108 444.40586693 164.74678108 444.40586693 163.1693573 444.05079651 C153.06447905 441.77994987 142.94167793 439.59696596 132.8125 437.4375 C131.08121359 437.06780776 129.34993105 436.69809744 127.61865234 436.32836914 C123.28702574 435.40387774 118.95505383 434.48101436 114.62298584 433.55859375 C106.62294489 431.85489684 98.62357583 430.14806232 90.625 428.4375 C89.75213348 428.25083771 88.87926697 428.06417542 87.97994995 427.87185669 C74.30107837 424.9441951 60.63869854 421.94715205 46.98730469 418.89404297 C39.5688776 417.23528626 32.14780731 415.59103823 24.71875 413.98046875 C23.96888824 413.81766418 23.21902649 413.65485962 22.44644165 413.48712158 C18.87173699 412.71124169 15.29647683 411.9381029 11.72021484 411.16943359 C9.84390381 410.76265381 9.84390381 410.76265381 7.9296875 410.34765625 C6.82866699 410.11054932 5.72764648 409.87344238 4.59326172 409.62915039 C2 409 2 409 0 408 C0 388.53 0 369.06 0 349 C0.99 348.67 1.98 348.34 3 348 C3 340.08 3 332.16 3 324 C2.01 323.67 1.02 323.34 0 323 C0 246.11 0 169.22 0 90 C1.485 89.505 1.485 89.505 3 89 C3 80.42 3 71.84 3 63 C2.01 63 1.02 63 0 63 C0 42.21 0 21.42 0 0 Z M156 217 C156 217.33 156 217.66 156 218 C156.80824219 218.08636719 157.61648438 218.17273438 158.44921875 218.26171875 C167.10909325 219.40035122 167.10909325 219.40035122 171.25 222.1875 C173.52309735 225.84069217 173.75545209 227.76946832 173 232 C171.3125 234.875 171.3125 234.875 168 237 C163.66760007 237.70807989 159.38552667 237.92936926 155 238 C158.76740288 241.97104628 160.74245158 243.82961899 166.3125 244.25 C170.95466337 243.93527706 174.12193562 242.89831305 177.44921875 239.53515625 C181.37326858 234.93648468 182.35700894 232.21613367 182.28125 226.31640625 C181.6982585 221.51482352 178.86738294 218.76412307 175.375 215.6875 C168.80915777 211.02229631 161.99395394 211.92819282 156 217 Z M117 226 C116.41666667 228.5 116.41666667 228.5 117 231 C118.59255761 233.08738243 119.47776655 233.9046701 122.08691406 234.38095093 C123.28912598 234.3845311 123.28912598 234.3845311 124.515625 234.38818359 C125.88219238 234.40236832 125.88219238 234.40236832 127.27636719 234.4168396 C128.25766602 234.41076691 129.23896484 234.40469421 130.25 234.3984375 C131.2596582 234.40130768 132.26931641 234.40417786 133.30957031 234.40713501 C135.44466716 234.40917688 137.57978266 234.40363846 139.71484375 234.39111328 C142.98740371 234.37506178 146.25872856 234.39095825 149.53125 234.41015625 C151.6041694 234.40817384 153.67708803 234.40433021 155.75 234.3984375 C156.73129883 234.40451019 157.71259766 234.41058289 158.72363281 234.4168396 C159.63467773 234.40738312 160.54572266 234.39792664 161.484375 234.38818359 C162.28584961 234.38579681 163.08732422 234.38341003 163.91308594 234.38095093 C166.53299769 233.90270516 167.44383324 233.13726453 169 231 C169.08223366 227.91004903 169.08223366 227.91004903 168 225 C165.20300834 223.17480679 162.96426259 222.74582023 159.66210938 222.7253418 C158.81442993 222.71580978 157.96675049 222.70627777 157.09338379 222.69645691 C156.18600464 222.69736832 155.27862549 222.69827972 154.34375 222.69921875 C152.93482483 222.69279106 152.93482483 222.69279106 151.49743652 222.68623352 C149.51376145 222.68049672 147.53006534 222.67998517 145.54638672 222.68432617 C142.51102894 222.68748851 139.47664373 222.66401062 136.44140625 222.63867188 C134.51302206 222.63639906 132.58463525 222.6356953 130.65625 222.63671875 C129.29518127 222.62290413 129.29518127 222.62290413 127.90661621 222.60881042 C121.79937427 222.53886314 121.79937427 222.53886314 117 226 Z " fill="#96989B" transform="translate(131,58)"/>
<path d="M0 0 C1.07304974 -0.00384115 2.14609949 -0.00768229 3.25166589 -0.01163983 C4.42976081 -0.01077335 5.60785574 -0.00990687 6.82165051 -0.00901413 C8.69984448 -0.01347081 8.69984448 -0.01347081 10.61598176 -0.01801753 C14.09371734 -0.02608478 17.57143227 -0.02787695 21.0491761 -0.028615 C24.79910992 -0.03046601 28.54903305 -0.03801355 32.29896069 -0.04475021 C40.49934405 -0.0583317 48.69972252 -0.06435785 56.90011525 -0.06876087 C62.01995939 -0.07152338 67.13980164 -0.07576073 72.25964451 -0.08026505 C86.43381443 -0.09245704 100.60798284 -0.10275677 114.7821579 -0.10614014 C115.68931313 -0.1063597 116.59646837 -0.10657927 117.53111316 -0.10680549 C118.89510578 -0.10713291 118.89510578 -0.10713291 120.28665382 -0.10746694 C122.12930795 -0.1079104 123.97196208 -0.10835697 125.8146162 -0.10880661 C126.72863676 -0.10902804 127.64265731 -0.10924947 128.58437546 -0.10947761 C143.3974603 -0.11342631 158.21049597 -0.13088286 173.02356181 -0.15416613 C188.23030109 -0.17787538 203.43701568 -0.19034178 218.64377373 -0.19150805 C227.18248688 -0.19242501 235.72113593 -0.19818254 244.25983143 -0.21632767 C251.53007723 -0.23172283 258.80023914 -0.23685255 266.07049815 -0.22858956 C269.77971944 -0.22468109 273.48877176 -0.22562218 277.1979723 -0.23964691 C281.21978937 -0.25471461 285.24122517 -0.24652531 289.26305676 -0.23606491 C290.43445951 -0.24412132 291.60586227 -0.25217772 292.81276208 -0.26047826 C298.88986027 -0.22342753 303.40939849 0.09370612 308.73282909 3.13142776 C313.32071408 8.0815142 313.88264711 11.31731035 313.89104748 17.86758804 C313.89598545 18.67623564 313.90092343 19.48488324 313.90601104 20.3180353 C313.92144225 23.044649 313.92976307 25.77123903 313.93815136 28.49788284 C313.94772823 30.44797347 313.9577382 32.398062 313.96815014 34.34814835 C313.99529402 39.66851297 314.01626957 44.98888648 314.03615212 50.30928254 C314.05806195 55.90542446 314.08545039 61.50153961 314.11220837 67.09766006 C314.15656327 76.53444087 314.19729845 85.97123152 314.23551464 95.40803909 C314.28888175 108.58446978 314.34872108 121.76086488 314.40991032 134.93726122 C314.4576793 145.27932117 314.50355979 155.62138965 314.54923534 165.96345901 C314.5540521 167.04873705 314.55886885 168.13401509 314.56383157 169.25218034 C314.68454288 196.54542326 314.76304033 223.83790269 314.73282909 251.13142776 C311.34466173 250.39110497 310.04386962 249.73602431 307.85782909 247.00642776 C304.29523294 242.73439688 300.54411848 238.68007948 296.73282909 234.63142776 C292.42440209 230.04082395 288.15327577 225.43664762 284.06486034 220.64705276 C282.79134686 219.08794112 282.79134686 219.08794112 281.17212486 217.98871517 C278.99588123 215.18045993 279.3292525 212.30604507 279.37206554 208.89920425 C279.36949749 208.15930756 279.36692944 207.41941086 279.36428356 206.65709305 C279.35930686 204.16304924 279.37590539 201.66960605 279.39225292 199.17561722 C279.39317164 197.36302427 279.39277195 195.55043025 279.39115715 193.73783779 C279.3904787 188.87524796 279.40789049 184.01287873 279.42898846 179.15034103 C279.44604884 174.59076604 279.44687647 170.03124522 279.44901562 165.47163773 C279.46476973 152.12903842 279.50665304 138.78648032 279.54532909 125.44392776 C279.60720409 95.64080276 279.66907909 65.83767776 279.73282909 35.13142776 C192.94282909 35.13142776 106.15282909 35.13142776 16.73282909 35.13142776 C16.73282909 175.05142776 16.73282909 314.97142776 16.73282909 459.13142776 C5.51282909 459.13142776 -5.70717091 459.13142776 -17.26717091 459.13142776 C-17.33556218 401.88920536 -17.38868195 344.64698801 -17.42036689 287.40473278 C-17.42410898 280.65160304 -17.42799863 273.89847339 -17.43196583 267.14534378 C-17.43235811 266.47331836 -17.43275038 265.80129295 -17.43315455 265.10890312 C-17.44594359 243.3180253 -17.46848124 221.52717078 -17.49606257 199.73630709 C-17.52515084 176.71310748 -17.54315593 153.68991906 -17.54943639 130.66670007 C-17.55355921 116.87045812 -17.56659553 103.07428307 -17.59092031 89.27806171 C-17.6067396 79.82620986 -17.61157992 70.37439274 -17.60767504 60.9225286 C-17.60574755 55.46376998 -17.60876753 50.0051285 -17.62478733 44.54639053 C-17.63933494 39.55300857 -17.64015681 34.55982307 -17.62986759 29.56643226 C-17.62859502 27.75612253 -17.63244398 25.94580078 -17.64182045 24.13551489 C-17.65379575 21.68159501 -17.64741024 19.22839172 -17.63631439 16.77448368 C-17.64419543 16.0656633 -17.65207647 15.35684292 -17.66019633 14.62654313 C-17.61565894 10.29114398 -16.90769021 7.58619271 -14.26717091 4.13142776 C-9.58743335 0.77161619 -5.67126142 0.0076236 0 0 Z " fill="#97989B" transform="translate(106.2671709060669,16.868572235107422)"/>
<path d="M0 0 C0 61.38 0 122.76 0 186 C-11.22 186 -22.44 186 -34 186 C-34.20335173 166.46745811 -34.36905847 146.93577636 -34.46630955 127.40244389 C-34.51267 118.33228152 -34.57584686 109.26282467 -34.67895508 100.19311523 C-34.76880724 92.28566282 -34.82675826 84.37872143 -34.84679645 76.47077268 C-34.85850605 72.28525631 -34.88591838 68.10120156 -34.95157051 63.91615486 C-35.0129426 59.97175813 -35.03145016 56.02941596 -35.01796913 52.0845871 C-35.02043289 50.64178969 -35.03817492 49.19891928 -35.07284927 47.75653648 C-35.32124249 36.88502789 -35.32124249 36.88502789 -32.05952263 32.23150444 C-29.80977872 29.97510754 -27.47438922 28.00246173 -25 26 C-23.72117951 24.60929421 -22.46593885 23.19600732 -21.25 21.75 C-18.6218555 18.68983175 -15.85343211 15.85343211 -13 13 C-10.67930519 10.44888159 -8.37957993 7.88014265 -6.0859375 5.3046875 C-1.28474576 0 -1.28474576 0 0 0 Z " fill="#979A9C" transform="translate(420,290)"/>
<path d="M0 0 C3.72897461 1.51858695 5.76386575 3.7265814 8.375 6.75 C11.0200756 9.77544185 13.66283389 12.71742255 16.5625 15.5 C19 18 19 18 19 20 C19.99 20.33 20.98 20.66 22 21 C23.47265625 22.4609375 23.47265625 22.4609375 25.0625 24.375 C28.92042367 28.944901 32.97630229 33.31145312 37.05859375 37.6796875 C39 40 39 40 39 42 C39.66 42 40.32 42 41 42 C41.67578125 43.734375 41.67578125 43.734375 42 46 C40.85546875 48.140625 40.85546875 48.140625 39.1875 50.25 C38.37345703 51.30960937 38.37345703 51.30960937 37.54296875 52.390625 C37.03378906 52.92171875 36.52460938 53.4528125 36 54 C35.34 54 34.68 54 34 54 C33.7321167 54.59006836 33.4642334 55.18013672 33.18823242 55.78808594 C31.98826517 58.02184458 30.73387987 59.56273425 28.98828125 61.390625 C28.39877686 62.01372559 27.80927246 62.63682617 27.2019043 63.27880859 C26.57840088 63.92930176 25.95489746 64.57979492 25.3125 65.25 C24.03289239 66.60065197 22.75423481 67.95220466 21.4765625 69.3046875 C20.86844727 69.94760742 20.26033203 70.59052734 19.63378906 71.25292969 C17.76582765 73.25040905 15.9637485 75.29569488 14.1875 77.375 C11.6256565 80.33448334 8.97193747 83.18660543 6.25 86 C5.51265625 86.763125 4.7753125 87.52625 4.015625 88.3125 C2 90 2 90 -1 90 C-1 81.09 -1 72.18 -1 63 C-7.93 63 -14.86 63 -22 63 C-21 53 -21 53 -20.4453125 50.23828125 C-19.01045063 43.02621239 -19.89046698 35.21196462 -21 28 C-16.1846176 27.25917194 -11.57952712 26.94202999 -6.703125 26.96875 C-5.09679199 26.97551758 -5.09679199 26.97551758 -3.45800781 26.98242188 C-2.24129395 26.99112305 -2.24129395 26.99112305 -1 27 C-1.00785522 25.82642944 -1.00785522 25.82642944 -1.01586914 24.62915039 C-1.03657106 21.10694167 -1.04963838 17.5847457 -1.0625 14.0625 C-1.07087891 12.83080078 -1.07925781 11.59910156 -1.08789062 10.33007812 C-1.09272461 8.5753418 -1.09272461 8.5753418 -1.09765625 6.78515625 C-1.10551147 5.15912476 -1.10551147 5.15912476 -1.11352539 3.50024414 C-1 1 -1 1 0 0 Z " fill="#9CADAB" transform="translate(375,234)"/>
<path d="M0 0 C0.33 0 0.66 0 1 0 C1 12.21 1 24.42 1 37 C-0.32 36.67 -1.64 36.34 -3 36 C-2 34 -2 34 -1 33 C-0.92490225 31.49391471 -0.91683321 29.98437729 -0.9375 28.4765625 C-0.94587891 27.54215332 -0.95425781 26.60774414 -0.96289062 25.64501953 C-0.97513672 24.64841309 -0.98738281 23.65180664 -1 22.625 C-1.05382817 15.02911177 -1.01069833 7.54414112 0 0 Z " fill="#AFB8B8" transform="translate(420,231)"/>
</svg>
